<?xml version="1.0" standalone="no"?>
<!DOCTYPE svg PUBLIC "-//W3C//DTD SVG 20010904//EN"
 "http://www.w3.org/TR/2001/REC-SVG-20010904/DTD/svg10.dtd">
<svg version="1.0" xmlns="http://www.w3.org/2000/svg"
 width="820.000000pt" height="820.000000pt" viewBox="0 0 820.000000 820.000000"
 preserveAspectRatio="xMidYMid meet">
<metadata>
Created by potrace 1.14, written by Peter Selinger 2001-2017
</metadata>
<g transform="translate(0.000000,820.000000) scale(0.100000,-0.100000)"
fill="#000000" stroke="none">
<path d="M2 4814 l3 -2487 3524 0 c2449 0 3525 3 3530 11 5 8 7 161 2 182 -1
3 -1544 5 -3431 5 -3042 0 -3430 2 -3431 15 0 8 -1 1083 -1 2388 l-1 2372 -99
0 -98 0 2 -2486z"/>
<path d="M1147 5868 c-10 -6 -18 -158 -10 -183 2 -7 1154 -10 3431 -10 2152 1
3429 -3 3434 -9 3 -5 3 -19 -2 -31 -5 -12 -5 -26 -2 -32 4 -6 6 -134 4 -285
-2 -304 -2 -316 1 -375 2 -24 -1 -43 -6 -43 -4 0 -5 -5 -1 -12 10 -16 11 -228
2 -228 -4 0 -4 -10 0 -22 4 -13 6 -142 5 -288 -2 -146 -3 -281 -2 -300 0 -19
0 -50 0 -67 -1 -18 -1 -40 -1 -48 0 -8 0 -62 0 -120 0 -58 0 -113 0 -122 0
-10 0 -142 0 -293 0 -151 0 -293 1 -315 4 -187 4 -232 -4 -242 -5 -7 -6 -13
-1 -13 11 0 11 -611 0 -628 -4 -7 -4 -12 1 -12 10 0 9 -612 -1 -628 -4 -7 -4
-12 1 -12 4 0 8 -145 8 -322 l0 -323 98 -3 97 -3 -2 2487 -3 2487 -3518 1
c-1936 1 -3524 -2 -3530 -6z"/>
</g>
</svg>
