<?xml version="1.0"?>
<svg width="682" height="70" xmlns="http://www.w3.org/2000/svg" xmlns:svg="http://www.w3.org/2000/svg">
 <defs>
  <clipPath id="clip0_298_354">
   <rect fill="white" height="152" id="svg_1" width="558"/>
  </clipPath>
 </defs>
 <g class="layer">
  <title>Layer 1</title>
  <path clip-rule="evenodd" d="m2.15,3l1.99,0l0,48.5l69.25,0l0,2l-71.24,0l0,-50.5zm80.71,16.5l-69.25,0l0,-2l71.24,0l0,50.5l-1.99,0l0,-48.5z" fill="#ffffff" fill-rule="evenodd" id="svg_12" transform="matrix(1 0 0 1 0 0)"/>
  <g id="svg_13">
   <path d="m674.4,17.89l5.6,0l0,0.22l-18.95,27.48l0,22.52l-4.79,0l0,-22.52l-18.94,-27.48l0,-0.22l5.6,0l11.43,16.69c1.69,2.44 3.02,4.5 4.35,6.94c1.33,-2.44 2.72,-4.65 4.27,-6.94l11.43,-16.69z" fill="#ffffff" id="svg_3"/>
   <path d="m596.95,42.85l25.14,25.04l0,0.22l-6.12,0l-23.88,-23.71l0,23.71l-4.87,0l0,-50.22l4.87,0l0,23.71l22.64,-23.71l5.97,0l0,0.22l-23.74,24.74z" fill="#ffffff" id="svg_4"/>
   <path d="m543.92,69c-15.12,0 -25.43,-11.74 -25.43,-26.07c0,-14.85 10.54,-25.93 25.43,-25.93c7.89,0 13.57,2.81 18.88,8.2l-2.88,2.95c-3.98,-4.13 -8.85,-6.64 -16,-6.64c-12.09,0 -20.57,9.23 -20.57,21.42c0,11.89 8.41,21.56 20.57,21.56c7.08,0 12.68,-3.39 16.37,-8.34l3.47,2.73c-4.14,5.98 -10.99,10.12 -19.84,10.12z" fill="#ffffff" id="svg_5"/>
   <path d="m474.39,69c-10.61,0 -19.24,-6.28 -19.24,-18.1l0,-33.01l4.86,0l0,32.94c0,9.23 5.9,13.74 14.38,13.74c8.33,0 14.23,-4.51 14.23,-13.74l0,-32.94l4.86,0l0,33.01c0,11.82 -8.62,18.1 -19.09,18.1z" fill="#ffffff" id="svg_6"/>
   <path d="m405.73,68.11l0,-50.22l4.86,0l0,45.79l24.18,0l0,4.43l-29.05,0z" fill="#ffffff" id="svg_7"/>
   <path d="m329.83,17.52l23.31,50.45l0,0.14l-5.09,0l-5.31,-11.52l-27.42,0l-5.31,11.52l-5.09,0l0,-0.14l23.3,-50.45l1.62,0zm-0.81,8.56c-0.96,2.3 -1.77,4.51 -2.8,6.73l-8.93,19.35l23.38,0l-8.85,-19.35c-1.04,-2.15 -1.91,-4.36 -2.8,-6.73z" fill="#ffffff" id="svg_8"/>
   <path d="m277.66,17.89l4.86,0l0,50.59l-2.13,0l-31.19,-36.78c-1.11,-1.33 -2.36,-2.73 -3.62,-4.14c0.15,1.55 0.22,3.1 0.22,4.8l0,35.75l-4.86,0l0,-50.59l2.06,0l31.12,36.63c1.18,1.33 2.43,2.74 3.69,4.21c-0.15,-1.84 -0.15,-3.62 -0.15,-5.24l0,-35.23z" fill="#ffffff" id="svg_9"/>
   <path d="m195.25,17.52l23.3,50.45l0,0.14l-5.08,0l-5.31,-11.52l-27.43,0l-5.31,11.52l-5.08,0l0,-0.14l23.3,-50.45l1.62,0zm-0.81,8.56c-0.97,2.3 -1.77,4.51 -2.81,6.73l-8.92,19.35l23.38,0l-8.85,-19.35c-1.04,-2.15 -1.92,-4.36 -2.8,-6.73z" fill="#ffffff" id="svg_10"/>
   <path d="m124,68.11l0,-50.22l4.86,0l0,45.79l24.18,0l0,4.43l-29.05,0z" fill="#ffffff" id="svg_11"/>
  </g>
 </g>
</svg>