<svg width="743" height="183" viewBox="0 0 743 183" fill="none" xmlns="http://www.w3.org/2000/svg">
<path d="M644.418 101.68H650.042V101.902L631.024 129.43V152H626.214V129.43L607.196 101.902V101.68H612.82L624.29 118.404C625.992 120.846 627.324 122.918 628.656 125.36C629.988 122.918 631.394 120.698 632.948 118.404L644.418 101.68Z" fill="white"/>
<path d="M566.687 126.692L591.921 151.778V152H585.779L561.803 128.246V152H556.919V101.68H561.803V125.434L584.521 101.68H590.515V101.902L566.687 126.692Z" fill="white"/>
<path d="M513.465 152.888C498.295 152.888 487.935 141.122 487.935 126.766C487.935 111.892 498.517 100.792 513.465 100.792C521.383 100.792 527.081 103.604 532.409 109.006L529.523 111.966C525.527 107.822 520.643 105.306 513.465 105.306C501.329 105.306 492.819 114.556 492.819 126.766C492.819 138.68 501.255 148.374 513.465 148.374C520.569 148.374 526.193 144.97 529.893 140.012L533.371 142.75C529.227 148.744 522.345 152.888 513.465 152.888Z" fill="white"/>
<path d="M443.676 152.888C433.02 152.888 424.362 146.598 424.362 134.758V101.68H429.246V134.684C429.246 143.934 435.166 148.448 443.676 148.448C452.038 148.448 457.958 143.934 457.958 134.684V101.68H462.842V134.758C462.842 146.598 454.184 152.888 443.676 152.888Z" fill="white"/>
<path d="M374.761 152V101.68H379.645V147.56H403.917V152H374.761Z" fill="white"/>
<path d="M298.588 101.31L321.972 151.852V152H316.866L311.538 140.456H284.01L278.682 152H273.576V151.852L296.96 101.31H298.588ZM297.774 109.894C296.812 112.188 295.998 114.408 294.962 116.628L286.008 136.016H309.466L300.586 116.628C299.55 114.482 298.662 112.262 297.774 109.894Z" fill="white"/>
<path d="M246.22 101.68H251.104V152.37H248.958L217.656 115.518C216.546 114.186 215.288 112.78 214.03 111.374C214.178 112.928 214.252 114.482 214.252 116.184V152H209.368V101.31H211.44L242.668 138.014C243.852 139.346 245.11 140.752 246.368 142.232C246.22 140.382 246.22 138.606 246.22 136.978V101.68Z" fill="white"/>
<path d="M163.515 101.31L186.899 151.852V152H181.793L176.465 140.456H148.937L143.609 152H138.503V151.852L161.887 101.31H163.515ZM162.701 109.894C161.739 112.188 160.925 114.408 159.889 116.628L150.935 136.016H174.393L165.513 116.628C164.477 114.482 163.589 112.262 162.701 109.894Z" fill="white"/>
<path d="M92 152V101.68H96.884V147.56H121.156V152H92Z" fill="white"/>
<path d="M737.987 178.208C735.897 178.208 733.807 176.669 733.807 173.781C733.807 171.007 735.821 169.411 738.101 169.411C739.317 169.411 740.248 169.791 741.103 170.551L740.438 171.349C739.754 170.76 739.089 170.494 738.101 170.494C736.353 170.494 734.985 171.805 734.985 173.781C734.985 175.795 736.334 177.125 738.082 177.125C739.222 177.125 739.906 176.764 740.59 176.118L741.236 176.954C740.362 177.771 739.45 178.208 737.987 178.208Z" fill="white"/>
<path d="M715.723 178.209C713.196 178.209 711.391 176.385 711.391 173.801C711.391 171.217 713.196 169.393 715.723 169.393C718.288 169.393 720.093 171.217 720.093 173.801C720.093 176.385 718.288 178.209 715.723 178.209ZM715.723 177.126C717.604 177.126 718.915 175.758 718.915 173.801C718.915 171.863 717.623 170.476 715.723 170.476C713.861 170.476 712.569 171.863 712.569 173.801C712.569 175.758 713.861 177.126 715.723 177.126Z" fill="white"/>
<path d="M689.183 178.114L689.05 177.069C690.627 176.898 691.121 175.891 691.273 174.029L691.634 169.602H697.068V178H695.909V170.685H692.679L692.413 173.934C692.204 176.708 691.368 177.829 689.183 178.114Z" fill="white"/>
<path d="M672.115 178.209C669.588 178.209 667.783 176.385 667.783 173.801C667.783 171.217 669.588 169.393 672.115 169.393C674.68 169.393 676.485 171.217 676.485 173.801C676.485 176.385 674.68 178.209 672.115 178.209ZM672.115 177.126C673.996 177.126 675.307 175.758 675.307 173.801C675.307 171.863 674.015 170.476 672.115 170.476C670.253 170.476 668.961 171.863 668.961 173.801C668.961 175.758 670.253 177.126 672.115 177.126Z" fill="white"/>
<path d="M652.606 173.687C653.556 173.953 654.164 174.637 654.164 175.701C654.164 177.164 653.081 178 651.447 178H647.514V169.602H651.124C652.739 169.602 653.765 170.476 653.765 171.825C653.765 172.756 653.328 173.345 652.606 173.687ZM651.105 170.647H648.673V173.212H651.105C652.15 173.212 652.606 172.623 652.606 171.92C652.606 171.236 652.15 170.647 651.105 170.647ZM651.428 176.955C652.511 176.955 653.005 176.385 653.005 175.606C653.005 174.846 652.511 174.257 651.428 174.257H648.673V176.955H651.428Z" fill="white"/>
<path d="M613.287 169.393C615.624 169.393 617.011 171.008 617.011 173.459C617.011 173.725 616.992 173.991 616.954 174.276H610.228C610.418 176.062 611.786 177.126 613.363 177.126C614.541 177.126 615.282 176.765 615.928 176.1L616.593 176.936C615.738 177.753 614.712 178.209 613.382 178.209C610.836 178.209 609.05 176.385 609.05 173.782C609.05 171.35 610.798 169.393 613.287 169.393ZM613.268 170.476C611.71 170.476 610.494 171.578 610.266 173.25H615.871C615.833 171.464 614.807 170.476 613.268 170.476Z" fill="white"/>
<path d="M594.3 169.602H594.718V178H593.559V172.87C593.559 172.547 593.559 172.224 593.578 171.901C593.331 172.224 593.065 172.547 592.78 172.851L588.087 178H587.669V169.602H588.828V174.58C588.828 174.96 588.809 175.34 588.79 175.701C589.094 175.321 589.417 174.96 589.74 174.599L594.3 169.602Z" fill="white"/>
<path d="M571.568 169.602H572.727V178H571.568V174.295H566.894V178H565.735V169.602H566.894V173.231H571.568V169.602Z" fill="white"/>
<path d="M547.801 169.393C550.138 169.393 551.525 171.008 551.525 173.459C551.525 173.725 551.506 173.991 551.468 174.276H544.742C544.932 176.062 546.3 177.126 547.877 177.126C549.055 177.126 549.796 176.765 550.442 176.1L551.107 176.936C550.252 177.753 549.226 178.209 547.896 178.209C545.35 178.209 543.564 176.385 543.564 173.782C543.564 171.35 545.312 169.393 547.801 169.393ZM547.782 170.476C546.224 170.476 545.008 171.578 544.78 173.25H550.385C550.347 171.464 549.321 170.476 547.782 170.476Z" fill="white"/>
<path d="M521.357 178.114L521.224 177.069C522.801 176.898 523.295 175.891 523.447 174.029L523.808 169.602H529.242V178H528.083V170.685H524.853L524.587 173.934C524.378 176.708 523.542 177.829 521.357 178.114Z" fill="white"/>
<path d="M506.695 173.687C507.645 173.953 508.253 174.637 508.253 175.701C508.253 177.164 507.17 178 505.536 178H501.603V169.602H505.213C506.828 169.602 507.854 170.476 507.854 171.825C507.854 172.756 507.417 173.345 506.695 173.687ZM505.194 170.647H502.762V173.212H505.194C506.239 173.212 506.695 172.623 506.695 171.92C506.695 171.236 506.239 170.647 505.194 170.647ZM505.517 176.955C506.6 176.955 507.094 176.385 507.094 175.606C507.094 174.846 506.6 174.257 505.517 174.257H502.762V176.955H505.517Z" fill="white"/>
<path d="M482.911 178.209C480.384 178.209 478.579 176.385 478.579 173.801C478.579 171.217 480.384 169.393 482.911 169.393C485.476 169.393 487.281 171.217 487.281 173.801C487.281 176.385 485.476 178.209 482.911 178.209ZM482.911 177.126C484.792 177.126 486.103 175.758 486.103 173.801C486.103 171.863 484.811 170.476 482.911 170.476C481.049 170.476 479.757 171.863 479.757 173.801C479.757 175.758 481.049 177.126 482.911 177.126Z" fill="white"/>
<path d="M463.086 169.602H464.245V178H463.086V174.295H458.412V178H457.253V169.602H458.412V173.231H463.086V169.602Z" fill="white"/>
<path d="M439.25 169.507C441.169 169.507 442.442 170.514 442.442 172.414V178H441.587L441.378 176.48C440.77 177.487 439.687 178.152 438.205 178.152C436.571 178.152 435.526 177.259 435.526 175.815C435.526 173.934 437.255 172.851 439.725 172.851C440.352 172.851 440.827 172.87 441.264 172.927V172.357C441.264 171.179 440.428 170.59 439.136 170.59C438.224 170.59 437.293 170.856 436.362 171.293L435.963 170.305C437.103 169.773 438.186 169.507 439.25 169.507ZM438.395 177.069C440.124 177.069 441.207 175.815 441.264 173.896C440.808 173.839 440.447 173.82 439.896 173.82C437.92 173.82 436.742 174.504 436.742 175.739C436.742 176.575 437.35 177.069 438.395 177.069Z" fill="white"/>
<path d="M418.673 178V170.666H415.994V169.602H422.53V170.666H419.832V178H418.673Z" fill="white"/>
<path d="M399.959 178.208C397.869 178.208 395.779 176.669 395.779 173.781C395.779 171.007 397.793 169.411 400.073 169.411C401.289 169.411 402.22 169.791 403.075 170.551L402.41 171.349C401.726 170.76 401.061 170.494 400.073 170.494C398.325 170.494 396.957 171.805 396.957 173.781C396.957 175.795 398.306 177.125 400.054 177.125C401.194 177.125 401.878 176.764 402.562 176.118L403.208 176.954C402.334 177.771 401.422 178.208 399.959 178.208Z" fill="white"/>
<path d="M379.361 178.208C377.271 178.208 375.181 176.669 375.181 173.781C375.181 171.007 377.195 169.411 379.475 169.411C380.691 169.411 381.622 169.791 382.477 170.551L381.812 171.349C381.128 170.76 380.463 170.494 379.475 170.494C377.727 170.494 376.359 171.805 376.359 173.781C376.359 175.795 377.708 177.125 379.456 177.125C380.596 177.125 381.28 176.764 381.964 176.118L382.61 176.954C381.736 177.771 380.824 178.208 379.361 178.208Z" fill="white"/>
<path d="M357.097 178.209C354.57 178.209 352.765 176.385 352.765 173.801C352.765 171.217 354.57 169.393 357.097 169.393C359.662 169.393 361.467 171.217 361.467 173.801C361.467 176.385 359.662 178.209 357.097 178.209ZM357.097 177.126C358.978 177.126 360.289 175.758 360.289 173.801C360.289 171.863 358.997 170.476 357.097 170.476C355.235 170.476 353.943 171.863 353.943 173.801C353.943 175.758 355.235 177.126 357.097 177.126Z" fill="white"/>
<path d="M337.589 173.687C338.539 173.953 339.147 174.637 339.147 175.701C339.147 177.164 338.064 178 336.43 178H332.497V169.602H336.107C337.722 169.602 338.748 170.476 338.748 171.825C338.748 172.756 338.311 173.345 337.589 173.687ZM336.088 170.647H333.656V173.212H336.088C337.133 173.212 337.589 172.623 337.589 171.92C337.589 171.236 337.133 170.647 336.088 170.647ZM336.411 176.955C337.494 176.955 337.988 176.385 337.988 175.606C337.988 174.846 337.494 174.257 336.411 174.257H333.656V176.955H336.411Z" fill="white"/>
<path d="M300.845 169.602H301.263V178H300.104V172.87C300.104 172.547 300.104 172.224 300.123 171.901C299.876 172.224 299.61 172.547 299.325 172.851L294.632 178H294.214V169.602H295.373V174.58C295.373 174.96 295.354 175.34 295.335 175.701C295.639 175.321 295.962 174.96 296.285 174.599L300.845 169.602Z" fill="white"/>
<path d="M259.556 169.602H262.995V178H261.836V174.77H259.727L257.314 178H255.984V177.905L258.473 174.637C257.314 174.333 256.592 173.497 256.592 172.224C256.592 170.552 257.751 169.602 259.556 169.602ZM259.575 173.763H261.836V170.647H259.575C258.283 170.647 257.751 171.274 257.751 172.224C257.751 173.155 258.283 173.763 259.575 173.763Z" fill="white"/>
<path d="M241.519 169.602H241.937V178H240.778V172.87C240.778 172.547 240.778 172.224 240.797 171.901C240.55 172.224 240.284 172.547 239.999 172.851L235.306 178H234.888V169.602H236.047V174.58C236.047 174.96 236.028 175.34 236.009 175.701C236.313 175.321 236.636 174.96 236.959 174.599L241.519 169.602Z" fill="white"/>
<path d="M219.815 176.936H221.031V180.223H219.91V178H212.88V169.602H214.039V176.936H218.656V169.602H219.815V176.936Z" fill="white"/>
<path d="M194.875 173.668L199.245 177.905V178H197.801L193.83 174.105V178H192.671V169.602H193.83V173.288L197.459 169.602H198.865V169.659L194.875 173.668Z" fill="white"/>
<path d="M177.739 169.602H178.955V169.64L175.364 178.418C174.509 180.527 173.673 181.819 171.564 182.237L171.336 181.268C173.084 180.945 173.654 179.805 174.338 178.133L174.452 177.867L170.766 169.64V169.602H171.982L173.996 174.2C174.338 174.96 174.661 175.739 175.003 176.689C175.307 175.739 175.611 174.96 175.915 174.2L177.739 169.602Z" fill="white"/>
<path d="M153.787 169.431C156.181 169.431 157.929 171.255 157.929 173.763C157.929 176.347 156.181 178.19 153.768 178.19C152.381 178.19 151.203 177.563 150.5 176.613C150.519 177.259 150.538 178.038 150.538 178.874V182.18H149.379V169.602H150.253L150.5 171.008C151.222 170.039 152.362 169.431 153.787 169.431ZM153.692 177.107C155.497 177.107 156.77 175.739 156.77 173.82C156.77 171.882 155.497 170.514 153.692 170.514C151.811 170.514 150.481 171.844 150.481 173.763C150.481 175.758 151.83 177.107 153.692 177.107Z" fill="white"/>
<path d="M131.694 178V170.666H129.015V169.602H135.551V170.666H132.853V178H131.694Z" fill="white"/>
<path d="M112.98 178.208C110.89 178.208 108.8 176.669 108.8 173.781C108.8 171.007 110.814 169.411 113.094 169.411C114.31 169.411 115.241 169.791 116.096 170.551L115.431 171.349C114.747 170.76 114.082 170.494 113.094 170.494C111.346 170.494 109.978 171.805 109.978 173.781C109.978 175.795 111.327 177.125 113.075 177.125C114.215 177.125 114.899 176.764 115.583 176.118L116.229 176.954C115.355 177.771 114.443 178.208 112.98 178.208Z" fill="white"/>
<path d="M93.3066 169.602H94.4656V178H93.3066V174.295H88.6326V178H87.4736V169.602H88.6326V173.231H93.3066V169.602Z" fill="white"/>
<path d="M68.7815 178.209C66.2545 178.209 64.4495 176.385 64.4495 173.801C64.4495 171.217 66.2545 169.393 68.7815 169.393C71.3465 169.393 73.1515 171.217 73.1515 173.801C73.1515 176.385 71.3465 178.209 68.7815 178.209ZM68.7815 177.126C70.6625 177.126 71.9735 175.758 71.9735 173.801C71.9735 171.863 70.6815 170.476 68.7815 170.476C66.9195 170.476 65.6275 171.863 65.6275 173.801C65.6275 175.758 66.9195 177.126 68.7815 177.126Z" fill="white"/>
<path d="M47.6654 173.668L52.0354 177.905V178H50.5914L46.6204 174.105V178H45.4614V169.602H46.6204V173.288L50.2494 169.602H51.6554V169.659L47.6654 173.668Z" fill="white"/>
<path d="M27.5278 169.393C29.8648 169.393 31.2518 171.008 31.2518 173.459C31.2518 173.725 31.2328 173.991 31.1948 174.276H24.4688C24.6588 176.062 26.0268 177.126 27.6038 177.126C28.7818 177.126 29.5228 176.765 30.1688 176.1L30.8338 176.936C29.9788 177.753 28.9528 178.209 27.6228 178.209C25.0768 178.209 23.2908 176.385 23.2908 173.782C23.2908 171.35 25.0388 169.393 27.5278 169.393ZM27.5088 170.476C25.9508 170.476 24.7348 171.578 24.5068 173.25H30.1118C30.0738 171.464 29.0478 170.476 27.5088 170.476Z" fill="white"/>
<path d="M5.408 169.431C7.802 169.431 9.55 171.255 9.55 173.763C9.55 176.347 7.802 178.19 5.389 178.19C4.002 178.19 2.824 177.563 2.121 176.613C2.14 177.259 2.159 178.038 2.159 178.874V182.18H1V169.602H1.874L2.121 171.008C2.843 170.039 3.983 169.431 5.408 169.431ZM5.313 177.107C7.118 177.107 8.391 175.739 8.391 173.82C8.391 171.882 7.118 170.514 5.313 170.514C3.432 170.514 2.102 171.844 2.102 173.763C2.102 175.758 3.451 177.107 5.313 177.107Z" fill="white"/>
<path fill-rule="evenodd" clip-rule="evenodd" d="M330 0H332V48.5H401.5V50.5H330V0ZM411 16.5H341.5V14.5H413V65H411V16.5Z" fill="white"/>
</svg>
