<svg width="558" height="152" viewBox="0 0 558 152" fill="none" xmlns="http://www.w3.org/2000/svg">
<g clip-path="url(#clip0_298_455)">
<path d="M552.376 100.886H558V101.107L538.983 128.585V151.113H534.174V128.585L515.157 101.107V100.886H520.781L532.25 117.579C533.952 120.016 535.284 122.085 536.616 124.522C537.947 122.085 539.353 119.869 540.907 117.579L552.376 100.886Z" fill="white"/>
<path d="M474.652 125.852L499.884 150.891V151.113H493.743L469.768 127.403V151.113H464.885V100.886H469.768V124.596L492.485 100.886H498.478V101.107L474.652 125.852Z" fill="white"/>
<path d="M421.434 152C406.265 152 395.906 140.256 395.906 125.926C395.906 111.08 406.487 100 421.434 100C429.351 100 435.049 102.807 440.376 108.199L437.491 111.153C433.495 107.017 428.611 104.506 421.434 104.506C409.299 104.506 400.789 113.739 400.789 125.926C400.789 137.818 409.225 147.494 421.434 147.494C428.537 147.494 434.161 144.097 437.861 139.148L441.338 141.881C437.195 147.864 430.313 152 421.434 152Z" fill="white"/>
<path d="M351.65 151.999C340.995 151.999 332.337 145.721 332.337 133.903V100.886H337.221V133.829C337.221 143.062 343.14 147.568 351.65 147.568C360.011 147.568 365.931 143.062 365.931 133.829V100.886H370.814V133.903C370.814 145.721 362.157 151.999 351.65 151.999Z" fill="white"/>
<path d="M282.74 151.113V100.886H287.624V146.681H311.894V151.113H282.74Z" fill="white"/>
<path d="M206.572 100.517L229.955 150.965V151.113H224.849L219.521 139.59H191.995L186.668 151.113H181.562V150.965L204.945 100.517H206.572ZM205.758 109.085C204.797 111.375 203.983 113.59 202.947 115.806L193.993 135.159H217.45L208.57 115.806C207.534 113.664 206.646 111.448 205.758 109.085Z" fill="white"/>
<path d="M154.209 100.886H159.092V151.483H156.946L125.647 114.698C124.537 113.369 123.279 111.965 122.021 110.562C122.169 112.113 122.243 113.664 122.243 115.363V151.113H117.359V100.517H119.431L150.657 137.153C151.841 138.483 153.099 139.886 154.357 141.363C154.209 139.517 154.209 137.744 154.209 136.119V100.886Z" fill="white"/>
<path d="M71.5094 100.517L94.8917 150.965V151.113H89.786L84.4584 139.59H56.9325L51.6049 151.113H46.4993V150.965L69.8815 100.517H71.5094ZM70.6955 109.085C69.7335 111.375 68.9196 113.59 67.8837 115.806L58.9303 135.159H82.3866L73.5073 115.806C72.4713 113.664 71.5834 111.448 70.6955 109.085Z" fill="white"/>
<path d="M0 151.113V100.886H4.88364V146.681H29.1538V151.113H0Z" fill="white"/>
<path fill-rule="evenodd" clip-rule="evenodd" d="M238 0H240V48.5H309.5V50.5H238V0ZM319 16.5H249.5V14.5H321V65H319V16.5Z" fill="white"/>
</g>
<defs>
<clipPath id="clip0_298_455">
<rect width="558" height="152" fill="white"/>
</clipPath>
</defs>
</svg>
